<svg data-v-fde0c5aa="" xmlns="http://www.w3.org/2000/svg" viewBox="0 0 300 300" class="iconLeft"><!----><defs data-v-fde0c5aa=""><!----></defs><rect data-v-fde0c5aa="" fill="#DDEBFB" x="0" y="0" width="300px" height="300px" class="logo-background-square"></rect><defs data-v-fde0c5aa=""><!----></defs><g data-v-fde0c5aa="" id="00c6b2a8-5985-45b9-b4d4-031fbbc6e3ea" fill="#262C4C" transform="matrix(2.9763230714641002,0,0,2.9763230714641002,93.23662140686531,116.11456256937636)"><path d="M8.36 5.14L8.36 5.14L8.36 13.44L8.36 13.44Q8.36 13.82 8.54 14.04L8.54 14.04L8.54 14.04Q8.72 14.25 9.06 14.25L9.06 14.25L9.06 14.25Q9.41 14.25 9.90 13.85L9.90 13.85L10.22 14.18L10.22 14.18Q9.10 15.20 7.98 15.20L7.98 15.20L7.98 15.20Q6.65 15.20 6.34 13.96L6.34 13.96L6.34 13.96Q5.61 15.20 4.20 15.20L4.20 15.20L4.20 15.20Q2.59 15.20 1.75 14.16L1.75 14.16L1.75 14.16Q0.91 13.12 0.91 11.50L0.91 11.50L0.91 11.50Q0.91 9.88 1.81 8.83L1.81 8.83L1.81 8.83Q2.72 7.78 4.34 7.78L4.34 7.78L4.34 7.78Q5.59 7.78 6.26 8.78L6.26 8.78L6.26 4.96L6.26 4.96Q5.49 5.15 5.08 5.64L5.08 5.64L4.70 5.21L4.70 5.21Q5.11 4.79 5.73 4.54L5.73 4.54L5.73 4.54Q6.36 4.28 6.96 4.28L6.96 4.28L6.96 4.28Q7.57 4.28 7.97 4.53L7.97 4.53L7.97 4.53Q8.36 4.77 8.36 5.14ZM3.47 9.37L3.47 9.37L3.47 9.37Q3.08 10.15 3.08 11.49L3.08 11.49L3.08 11.49Q3.08 12.84 3.47 13.62L3.47 13.62L3.47 13.62Q3.86 14.41 4.67 14.41L4.67 14.41L4.67 14.41Q5.47 14.41 5.90 13.62L5.90 13.62L5.90 13.62Q6.33 12.82 6.33 11.49L6.33 11.49L6.33 11.49Q6.33 10.16 5.90 9.37L5.90 9.37L5.90 9.37Q5.47 8.58 4.67 8.58L4.67 8.58L4.67 8.58Q3.86 8.58 3.47 9.37ZM15.44 7.78L15.44 7.78L15.44 7.78Q15.86 7.78 15.86 8.58L15.86 8.58L15.86 13.44L15.86 13.44Q15.86 13.82 16.04 14.04L16.04 14.04L16.04 14.04Q16.23 14.25 16.60 14.25L16.60 14.25L16.60 14.25Q16.98 14.25 17.47 13.85L17.47 13.85L17.72 14.18L17.72 14.18Q16.60 15.20 15.48 15.20L15.48 15.20L15.48 15.20Q13.76 15.20 13.76 13.15L13.76 13.15L13.76 9.21L13.76 9.21Q13.10 9.48 12.17 9.58L12.17 9.58L12.17 9.58Q12.05 10.86 11.42 12.15L11.42 12.15L10.85 11.98L10.85 11.98Q11.24 10.99 11.27 9.62L11.27 9.62L11.27 9.62Q10.74 9.62 10.41 9.31L10.41 9.31L10.41 9.31Q10.08 9.00 10.08 8.55L10.08 8.55L10.08 8.55Q10.08 8.09 10.39 7.78L10.39 7.78L10.39 7.78Q10.71 7.46 11.16 7.46L11.16 7.46L11.16 7.46Q11.62 7.46 11.93 7.78L11.93 7.78L11.93 7.78Q12.24 8.11 12.24 8.61L12.24 8.61L12.50 8.61L12.50 8.61Q13.61 8.61 14.85 7.99L14.85 7.99L14.85 7.99Q15.26 7.78 15.44 7.78ZM19.38 14.13L19.38 14.13L19.38 14.13Q18.35 13.06 18.35 11.49L18.35 11.49L18.35 11.49Q18.35 9.93 19.38 8.86L19.38 8.86L19.38 8.86Q20.41 7.78 22.06 7.78L22.06 7.78L22.06 7.78Q23.72 7.78 24.74 8.86L24.74 8.86L24.74 8.86Q25.77 9.93 25.77 11.49L25.77 11.49L25.77 11.49Q25.77 13.06 24.74 14.13L24.74 14.13L24.74 14.13Q23.72 15.20 22.06 15.20L22.06 15.20L22.06 15.20Q20.41 15.20 19.38 14.13ZM20.92 9.25L20.92 9.25L20.92 9.25Q20.52 10.12 20.52 11.49L20.52 11.49L20.52 11.49Q20.52 12.87 20.92 13.74L20.92 13.74L20.92 13.74Q21.31 14.62 22.08 14.62L22.08 14.62L22.08 14.62Q22.85 14.62 23.24 13.74L23.24 13.74L23.24 13.74Q23.63 12.87 23.63 11.49L23.63 11.49L23.63 11.49Q23.63 10.12 23.24 9.25L23.24 9.25L23.24 9.25Q22.85 8.37 22.08 8.37L22.08 8.37L22.08 8.37Q21.31 8.37 20.92 9.25ZM28.42 7.99L28.42 7.99L28.42 7.99Q29.71 7.99 30.65 8.71L30.65 8.71L30.65 8.71Q31.39 7.78 32.58 7.78L32.58 7.78L32.58 7.78Q34.19 7.78 35.03 8.83L35.03 8.83L35.03 8.83Q35.87 9.87 35.87 11.49L35.87 11.49L35.87 11.49Q35.87 13.10 34.96 14.15L34.96 14.15L34.96 14.15Q34.06 15.20 32.44 15.20L32.44 15.20L32.44 15.20Q31.23 15.20 30.52 14.13L30.52 14.13L30.52 18.49L28.42 18.49L28.42 8.55L28.42 8.55Q27.79 8.55 27.30 8.76L27.30 8.76L27.10 8.25L27.10 8.25Q27.71 7.99 28.42 7.99ZM33.31 13.62L33.31 13.62L33.31 13.62Q33.70 12.84 33.70 11.49L33.70 11.49L33.70 11.49Q33.70 10.15 33.31 9.37L33.31 9.37L33.31 9.37Q32.91 8.58 32.11 8.58L32.11 8.58L32.11 8.58Q31.30 8.58 30.88 9.37L30.88 9.37L30.88 9.37Q30.45 10.16 30.45 11.49L30.45 11.49L30.45 11.49Q30.45 12.82 30.88 13.62L30.88 13.62L30.88 13.62Q31.30 14.41 32.11 14.41L32.11 14.41L32.11 14.41Q32.91 14.41 33.31 13.62ZM36.78 5.21L36.78 5.21Q37.18 4.79 37.81 4.54L37.81 4.54L37.81 4.54Q38.43 4.28 39.04 4.28L39.04 4.28L39.04 4.28Q39.65 4.28 40.04 4.53L40.04 4.53L40.04 4.53Q40.43 4.77 40.43 5.14L40.43 5.14L40.43 13.44L40.43 13.44Q40.43 13.82 40.61 14.04L40.61 14.04L40.61 14.04Q40.80 14.25 41.17 14.25L41.17 14.25L41.17 14.25Q41.55 14.25 42.04 13.85L42.04 13.85L42.29 14.18L42.29 14.18Q41.17 15.20 40.05 15.20L40.05 15.20L40.05 15.20Q38.33 15.20 38.33 13.15L38.33 13.15L38.33 4.96L38.33 4.96Q37.56 5.15 37.16 5.64L37.16 5.64L36.78 5.21ZM45.85 11.76L45.85 11.76Q46.76 11.68 47.26 11.07L47.26 11.07L47.26 11.07Q47.75 10.46 47.75 9.84L47.75 9.84L47.75 9.84Q47.75 9.21 47.48 8.88L47.48 8.88L47.48 8.88Q47.21 8.54 46.65 8.54L46.65 8.54L46.65 8.54Q46.10 8.54 45.60 9.32L45.60 9.32L45.60 9.32Q45.09 10.11 45.09 11.42L45.09 11.42L45.09 11.42Q45.09 12.74 45.57 13.54L45.57 13.54L45.57 13.54Q46.05 14.34 46.93 14.34L46.93 14.34L46.93 14.34Q48.27 14.34 49.21 13.29L49.21 13.29L49.60 13.54L49.60 13.54Q49.13 14.29 48.34 14.75L48.34 14.75L48.34 14.75Q47.56 15.20 46.58 15.20L46.58 15.20L46.58 15.20Q44.91 15.20 43.92 14.11L43.92 14.11L43.92 14.11Q42.92 13.01 42.92 11.45L42.92 11.45L42.92 11.45Q42.92 9.90 43.98 8.84L43.98 8.84L43.98 8.84Q45.04 7.78 46.91 7.78L46.91 7.78L46.91 7.78Q48.15 7.78 48.85 8.36L48.85 8.36L48.85 8.36Q49.55 8.93 49.55 9.81L49.55 9.81L49.55 9.81Q49.55 10.70 48.77 11.45L48.77 11.45L48.77 11.45Q47.99 12.19 46.72 12.19L46.72 12.19L46.72 12.19Q46.28 12.19 45.88 12.10L45.88 12.10L45.85 11.76ZM52.07 8.76L50.92 8.76L50.92 8.19L52.07 8.19L52.07 6.17L54.17 6.17L54.17 8.19L55.75 8.19L55.75 8.76L54.17 8.76L54.17 13.44L54.17 13.44Q54.17 13.82 54.35 14.04L54.35 14.04L54.35 14.04Q54.53 14.25 54.91 14.25L54.91 14.25L54.91 14.25Q55.29 14.25 55.78 13.85L55.78 13.85L56.03 14.18L56.03 14.18Q54.91 15.20 53.79 15.20L53.79 15.20L53.79 15.20Q52.07 15.20 52.07 13.15L52.07 13.15L52.07 8.76Z"></path></g><defs data-v-fde0c5aa=""><linearGradient data-v-fde0c5aa="" gradientTransform="rotate(25)" id="f4507a20-d3d2-4907-9604-fac20d071cb2" x1="0%" y1="0%" x2="100%" y2="0%"><stop data-v-fde0c5aa="" offset="0%" stop-color="#E90DDA" stop-opacity="1"></stop><stop data-v-fde0c5aa="" offset="100%" stop-color="#15CFF1" stop-opacity="1"></stop></linearGradient></defs><g data-v-fde0c5aa="" id="852d46da-8c1c-4962-9d84-f86bfb71b75b" stroke="none" fill="url(#f4507a20-d3d2-4907-9604-fac20d071cb2)" transform="matrix(0.7050843327503625,0,0,0.7050843327503625,26.200698297633764,114.77157574404838)"><switch><g><path d="M79.9 59.6c-1.5-7.1-6.8-13.9-11.5-19.8-4.7-6-8.1-12.1-11.2-19.1-2.1-4.6-3.8-9.4-5.3-14.3-.3-1.1-1.5-1.7-2.6-1.3-1.5.6-1.4 2.6-1.7 3.9-.8 3.2-1.9 6.2-3.3 9.3-2.7 6.2-6.7 12.1-10.7 17.5-4.7 6.2-9.9 12.4-12.5 19.9-4 11.5-.1 28 11.1 34.4 11 6.3 23.3 6.6 34.2.1 10.2-6.1 16-18.9 13.5-30.6zM37.2 82.3c-.8 4.5-5.8-.6-5.8-.6-12.7-12.9-3.6-29.6 6.6-41.1.9-1 2.6 0 2.1 1.3-2.2 5.7-6.5 11.1-8.5 17.1-1.4 4.4-1.2 8.3 0 12.7 1.7 6.1 6 7.8 5.6 10.6zm9.6 6.3c-.5 1.3-2.9 1-2.9 1-3.1 0-5.5-2.1-4.5-4.1 1-1.9 2.9-1.2 4.3-.7 1.5.4 3.9 1.8 3.1 3.8z"></path></g></switch></g><!----></svg>