<svg data-v-423bf9ae="" xmlns="http://www.w3.org/2000/svg" viewBox="0 0 NaN 90" class="iconLeft"><!----><!----><!----><g data-v-423bf9ae="" id="bf95b99d-ffa7-4842-8dd1-b6a66895c90b" fill="black" transform="matrix(Infinity,0,0,Infinity,0,45)"><path d=""></path></g><!----><g data-v-423bf9ae="" id="ad0df760-385d-44fb-b3ee-58c82e140dcb" transform="matrix(1.0002721891383815,0,0,1.0002721891383815,-19.46747368186122,-4.0013543218646035)" stroke="none" fill="black"><switch><g><path d="M79.9 59.6c-1.5-7.1-6.8-13.9-11.5-19.8-4.7-6-8.1-12.1-11.2-19.1-2.1-4.6-3.8-9.4-5.3-14.3-.3-1.1-1.5-1.7-2.6-1.3-1.5.6-1.4 2.6-1.7 3.9-.8 3.2-1.9 6.2-3.3 9.3-2.7 6.2-6.7 12.1-10.7 17.5-4.7 6.2-9.9 12.4-12.5 19.9-4 11.5-.1 28 11.1 34.4 11 6.3 23.3 6.6 34.2.1 10.2-6.1 16-18.9 13.5-30.6zM37.2 82.3c-.8 4.5-5.8-.6-5.8-.6-12.7-12.9-3.6-29.6 6.6-41.1.9-1 2.6 0 2.1 1.3-2.2 5.7-6.5 11.1-8.5 17.1-1.4 4.4-1.2 8.3 0 12.7 1.7 6.1 6 7.8 5.6 10.6zm9.6 6.3c-.5 1.3-2.9 1-2.9 1-3.1 0-5.5-2.1-4.5-4.1 1-1.9 2.9-1.2 4.3-.7 1.5.4 3.9 1.8 3.1 3.8z"></path></g></switch></g><!----></svg>