<svg data-v-fde0c5aa="" xmlns="http://www.w3.org/2000/svg" viewBox="0 0 300 300" class="iconLeft"><!----><defs data-v-fde0c5aa=""><!----></defs><rect data-v-fde0c5aa="" fill="transparent" x="0" y="0" width="300px" height="300px" class="logo-background-square"></rect><defs data-v-fde0c5aa=""><!----></defs><g data-v-fde0c5aa="" id="3c34c106-a63d-4040-9a27-f7e7be5a8ef7" fill="#000000"><path d=""></path></g><defs data-v-fde0c5aa=""><linearGradient data-v-fde0c5aa="" gradientTransform="rotate(25)" id="2999c385-92ef-4d7d-b283-b16d471e3d03" x1="0%" y1="0%" x2="100%" y2="0%"><stop data-v-fde0c5aa="" offset="0%" stop-color="#E90DDA" stop-opacity="1"></stop><stop data-v-fde0c5aa="" offset="100%" stop-color="#15CFF1" stop-opacity="1"></stop></linearGradient></defs><g data-v-fde0c5aa="" id="8b693909-151e-4b8e-8951-95b9cdfe6eb2" stroke="none" fill="url(#2999c385-92ef-4d7d-b283-b16d471e3d03)"><switch><g><path d="M79.9 59.6c-1.5-7.1-6.8-13.9-11.5-19.8-4.7-6-8.1-12.1-11.2-19.1-2.1-4.6-3.8-9.4-5.3-14.3-.3-1.1-1.5-1.7-2.6-1.3-1.5.6-1.4 2.6-1.7 3.9-.8 3.2-1.9 6.2-3.3 9.3-2.7 6.2-6.7 12.1-10.7 17.5-4.7 6.2-9.9 12.4-12.5 19.9-4 11.5-.1 28 11.1 34.4 11 6.3 23.3 6.6 34.2.1 10.2-6.1 16-18.9 13.5-30.6zM37.2 82.3c-.8 4.5-5.8-.6-5.8-.6-12.7-12.9-3.6-29.6 6.6-41.1.9-1 2.6 0 2.1 1.3-2.2 5.7-6.5 11.1-8.5 17.1-1.4 4.4-1.2 8.3 0 12.7 1.7 6.1 6 7.8 5.6 10.6zm9.6 6.3c-.5 1.3-2.9 1-2.9 1-3.1 0-5.5-2.1-4.5-4.1 1-1.9 2.9-1.2 4.3-.7 1.5.4 3.9 1.8 3.1 3.8z"></path></g></switch></g><!----></svg>